<svg id="Layer_1" data-name="Layer 1" xmlns="http://www.w3.org/2000/svg" viewBox="0 0 512 512"><defs><style>.cls-1{fill:#cad8dd;}.cls-2{fill:#fff;}.cls-3{fill:#ffa840;}.cls-4{fill:#c15d25;}.cls-5{fill:#a1b9bf;}</style></defs><title>id-card-flat</title><path class="cls-1" d="M448,115.2H294.4V102.4a38.4,38.4,0,0,0-76.8,0v12.8H64a64.19,64.19,0,0,0-64,64V384a64.19,64.19,0,0,0,64,64H448a64.19,64.19,0,0,0,64-64V179.2A64.19,64.19,0,0,0,448,115.2ZM243.2,102.4a12.8,12.8,0,1,1,25.6,0v12.8H243.2Z"/><rect class="cls-2" x="51.2" y="166.4" width="230.4" height="230.4" rx="32" ry="32"/><path class="cls-3" d="M122.79,332.8c-2.91,0-4.79-2.16-5.65-3.45a12.11,12.11,0,0,1-1-11.23c9.21-22.18,28.94-36.52,50.27-36.52s41.06,14.34,50.27,36.52a12.11,12.11,0,0,1-1,11.23c-.86,1.29-2.74,3.45-5.65,3.45Z"/><path class="cls-4" d="M166.4,294.4c15.18,0,29.43,9.94,37.08,25.6H129.32c7.65-15.66,21.9-25.6,37.08-25.6m0-25.6c-27.49,0-51.2,18.18-62.09,44.41C98,328.3,108,345.6,122.79,345.6H210c14.84,0,24.75-17.3,18.48-32.39C217.6,287,193.89,268.8,166.4,268.8Z"/><path class="cls-3" d="M166.4,281.6A25.6,25.6,0,1,1,192,256,25.63,25.63,0,0,1,166.4,281.6Z"/><path class="cls-4" d="M166.4,243.2A12.8,12.8,0,1,1,153.6,256a12.81,12.81,0,0,1,12.8-12.8m0-25.6A38.4,38.4,0,1,0,204.8,256a38.4,38.4,0,0,0-38.4-38.4Z"/><path class="cls-5" d="M435.2,268.8H332.8a12.8,12.8,0,1,1,0-25.6H435.2a12.8,12.8,0,1,1,0,25.6Z"/><path class="cls-5" d="M396.8,320h-64a12.8,12.8,0,0,1,0-25.6h64a12.8,12.8,0,0,1,0,25.6Z"/></svg>